# xmcd
#
# Track frame offsets: 
#        150
#        37965
#        63602
#        68150
#        93697
#        120000
#
# Disc length: 2009 seconds
#
# Revision: 2
# Processed by: cddbd v1.5.2PL0 Copyright (c) Steve Scherf et al.
# Submitted via: ExactAudioCopyFreeDBPlugin 1.0
#
DISCID=4907d706
DTITLE=Black Light Orchestra - Once Upon A Time...
DYEAR=1977
DGENRE=Soul
TTITLE0=Morricone
TTITLE1=Theme For Black Light
TTITLE2=Fifty Eight
TTITLE3=Tribute To Barry
TTITLE4=From Genesis To Exodus
TTITLE5=Touch Me, Take Me
EXTD=YEAR: 2000
EXTT0=
EXTT1=
EXTT2=
EXTT3=
EXTT4=
EXTT5=
PLAYORDER=
